HIERARCHY
ROOT root
{
	OFFSET	0	13.1	24.9
	CHANNELS 6  Xposition Yposition Zposition Xrotation Yrotation Zrotation
	JOINT spine_1
	{
		OFFSET	0	9.99999	0
		CHANNELS 3  Xrotation Yrotation Zrotation
		JOINT spine_2
		{
			OFFSET	0	112	-10
			CHANNELS 3  Xrotation Yrotation Zrotation
			JOINT spine_3
			{
				OFFSET	0	206.5	19.3
				CHANNELS 3  Xrotation Yrotation Zrotation
				JOINT spine_4
				{
					OFFSET	0	110.4	14.6
					CHANNELS 3  Xrotation Yrotation Zrotation
					JOINT neck_1
					{
						OFFSET	0	71.8	-50.3
						CHANNELS 3  Xrotation Yrotation Zrotation
						JOINT neck_2
						{
							OFFSET	0	86.2	-25.8
							CHANNELS 3  Xrotation Yrotation Zrotation
							JOINT head_ee
							{
								OFFSET	0	179.8	-8.7
								CHANNELS 3  Xrotation Yrotation Zrotation
								End Site
								{
									OFFSET	1	0	0
								}
							}
						}
					}
					JOINT left_clavicle
					{
						OFFSET	-43.2	22.4	-70.8
						CHANNELS 3  Xrotation Yrotation Zrotation
						JOINT left_shoulder
						{
							OFFSET	-93.9	-5.79999	48.7
							CHANNELS 3  Xrotation Yrotation Zrotation
							JOINT left_elbow
							{
								OFFSET	-291.4	-30.8	15.2
								CHANNELS 3  Xrotation Yrotation Zrotation
								JOINT left_lowarm_twist
								{
									OFFSET	-110.7	-3.89999	13.6
									CHANNELS 3  Xrotation Yrotation Zrotation
									JOINT left_hand
									{
										OFFSET	-110.7	-3.89999	13.6
										CHANNELS 3  Xrotation Yrotation Zrotation
										JOINT left_ee
										{
											OFFSET	-80.8	-5.10001	12.1
											CHANNELS 3  Xrotation Yrotation Zrotation
											End Site
											{
												OFFSET	1	0	0
											}
										}
									}
								}
							}
						}
					}
					JOINT right_clavicle
					{
						OFFSET	43.2	22.4	-70.8
						CHANNELS 3  Xrotation Yrotation Zrotation
						JOINT right_shoulder
						{
							OFFSET	93.9	-5.79999	48.7
							CHANNELS 3  Xrotation Yrotation Zrotation
							JOINT right_elbow
							{
								OFFSET	291.4	-30.8	15.2
								CHANNELS 3  Xrotation Yrotation Zrotation
								JOINT right_lowarm_twist
								{
									OFFSET	110.7	-3.89999	13.6
									CHANNELS 3  Xrotation Yrotation Zrotation
									JOINT right_hand
									{
										OFFSET	110.7	-3.89999	13.6
										CHANNELS 3  Xrotation Yrotation Zrotation
										JOINT right_ee
										{
											OFFSET	80.8	-5.10001	12.1
											CHANNELS 3  Xrotation Yrotation Zrotation
											End Site
											{
												OFFSET	1	0	0
											}
										}
									}
								}
							}
						}
					}
				}
			}
		}
	}
	JOINT left_hip
	{
		OFFSET	-82.8	-127.5	0.300001
		CHANNELS 3  Xrotation Yrotation Zrotation
		JOINT left_knee
		{
			OFFSET	-28.2	-396.7	2.2
			CHANNELS 3  Xrotation Yrotation Zrotation
			JOINT left_ankle
			{
				OFFSET	-11.7	-411.3	35.4
				CHANNELS 3  Xrotation Yrotation Zrotation
				JOINT left_toes
				{
					OFFSET	0	-60	-88.6
					CHANNELS 3  Xrotation Yrotation Zrotation
					JOINT left_foot_ee
					{
						OFFSET	-22.5	-16.5	-42.2
						CHANNELS 3  Xrotation Yrotation Zrotation
						End Site
						{
							OFFSET	1	0	0
						}
					}
				}
			}
		}
	}
	JOINT right_hip
	{
		OFFSET	82.8	-127.5	0.300001
		CHANNELS 3  Xrotation Yrotation Zrotation
		JOINT right_knee
		{
			OFFSET	28.2	-396.7	2.2
			CHANNELS 3  Xrotation Yrotation Zrotation
			JOINT right_ankle
			{
				OFFSET	11.7	-411.3	35.4
				CHANNELS 3  Xrotation Yrotation Zrotation
				JOINT right_toes
				{
					OFFSET	0	-60	-88.6
					CHANNELS 3  Xrotation Yrotation Zrotation
					JOINT right_foot_ee
					{
						OFFSET	22.5	-16.5	-42.2
						CHANNELS 3  Xrotation Yrotation Zrotation
						End Site
						{
							OFFSET	1	0	0
						}
					}
				}
			}
		}
	}
}
MOTION
Frames: 5
Frame Time: 0.02
3401.6 690.877 -1451.65 1.74644 78.084 0.0881324 -1.14111 0.35646 1.83649 -1.13927 0.238898 1.85544 -1.12988 -0.193163 1.86076 -1.1347 0.103081 1.86791 -13.4408 14.5388 -17.3014 -13.6311 38.2929 -12.0171 -0.0 0.0 -0.0 -4.17229 24.5026 -2.76887 -19.2143 -23.0352 67.5841 0.270212 -7.62418 0.0180048 39.154 -0.305992 -4.89629 0.739796 11.1801 9.36484 -0.0 0.0 -0.0 10.2717 11.4231 -20.4076 18.5515 27.4217 -63.6799 2.43354 50.3156 -1.14308 14.8328 -0.282162 1.86848 5.73699 9.6667 -37.0526 0.0 0.0 0.0 30.0459 -5.24561 -9.69401 -7.51756 0.235739 1.12881 -17.1665 5.11513 2.58238 -16.2928 0.0 0.0 -0.0 0.0 -0.0 -17.5799 4.87435 -4.17504 -12.0167 -0.305336 -1.81549 34.6655 -21.6258 4.54079 -4.21531 0.0 0.0 0.0 0.0 0.0 
3377.12 687.552 -1446.01 1.34866 77.5397 1.01114 -1.17407 0.486041 1.79421 -1.17235 0.370905 1.82149 -1.15883 -0.0577544 1.85796 -1.16357 0.236349 1.84377 -12.7679 14.2325 -18.1672 -12.7065 38.3947 -13.2851 -0.0 0.0 -0.0 -3.57905 23.9659 -2.08423 -19.0075 -23.0942 67.1812 0.292607 -8.2477 0.0210968 39.5275 -0.324912 -4.94015 0.886971 11.3333 10.3738 -0.0 0.0 -0.0 10.3368 11.1539 -20.5563 18.1658 26.9157 -63.484 2.37374 49.614 -1.0973 15.0208 -0.282613 1.89248 5.59938 9.94005 -35.7537 0.0 0.0 0.0 31.0334 -5.62966 -9.74211 -11.8074 0.303297 1.78346 -16.7464 5.13959 2.51844 -15.6228 0.0 0.0 -0.0 0.0 -0.0 -18.9329 4.91212 -2.98009 -12.5576 -0.310066 -1.89836 36.2511 -22.0006 4.71269 -3.67917 0.0 0.0 0.0 0.0 0.0 
3357.48 683.978 -1444.76 1.86489 77.5231 0.304225 -1.23649 0.547678 1.85795 -1.23468 0.428364 1.88901 -1.21861 -0.0193502 1.93686 -1.22373 0.286727 1.91563 -9.54403 14.5211 -14.6071 -9.18072 37.1284 -10.9234 -0.0 0.0 -0.0 -1.31379 23.9676 0.991917 -21.4328 -22.665 62.6599 0.33023 -9.29071 0.0268329 39.4411 -0.320511 -4.93001 0.637659 13.2289 9.47995 -0.0 0.0 -0.0 11.1228 10.7577 -22.3055 17.5278 26.5107 -62.1528 2.25803 48.1965 -1.01009 15.5007 -0.283407 1.95377 5.0119 10.0945 -30.9588 0.0 0.0 0.0 32.3769 -5.59359 -9.75995 -19.2675 0.303635 2.92725 -8.67541 3.86675 1.2955 -13.1753 0.0 0.0 -0.0 0.0 -0.0 -19.1565 4.95044 -2.05832 -14.0568 -0.319086 -2.12821 38.5924 -24.1343 5.00413 -1.81463 0.0 0.0 0.0 0.0 0.0 
3325.67 684.637 -1441.15 3.08644 77.7171 -1.28186 -1.36353 0.605843 2.01151 -1.36141 0.476645 2.04597 -1.34201 -0.0131146 2.10069 -1.34803 0.318742 2.07642 -4.71273 15.0149 -12.4804 -3.61944 36.8458 -10.5995 -0.0 0.0 -0.0 0.127542 23.5083 2.89366 -24.7969 -21.8875 59.7602 0.365659 -10.2673 0.0328507 39.2678 -0.311726 -4.90967 0.697781 14.9857 10.5114 -0.0 0.0 -0.0 11.6317 10.9215 -23.4443 16.0911 25.9248 -61.4559 2.15892 46.9165 -0.936947 15.402 -0.283286 1.94117 4.9708 12.3114 -29.4536 0.0 0.0 0.0 33.7811 -5.13901 -8.75637 -26.8346 0.152234 4.07775 -7.40715 3.85268 1.10393 -11.1557 0.0 0.0 -0.0 0.0 -0.0 -20.3271 5.94722 -1.36922 -15.4126 -0.322061 -2.33619 38.6335 -25.9493 5.06543 0.458137 -0.0 -0.0 0.0 0.0 0.0 
3303.46 685.453 -1434.35 0.583993 79.0536 0.746224 -1.33782 0.374869 2.12493 -1.33534 0.238926 2.14446 -1.3241 -0.266743 2.14118 -1.33049 0.0746834 2.15644 -2.98646 14.4025 -13.799 -1.41478 36.7523 -12.8564 -0.0 0.0 -0.0 1.55716 22.237 4.76787 -25.749 -21.4082 57.7093 0.397757 -11.1468 0.0388143 39.7963 -0.338709 -4.97164 0.67915 17.0745 11.1504 -0.0 0.0 -0.0 12.1653 12.4308 -24.6377 14.6564 25.2011 -59.5764 1.99239 44.6194 -0.817602 17.4629 -0.281313 2.20437 4.55067 13.3693 -25.7224 0.0 0.0 0.0 34.7835 -4.92047 -6.84856 -30.6872 0.0171319 4.65346 -1.18388 5.45771 0.173966 -8.63494 0.0 0.0 -0.0 0.0 -0.0 -20.9911 6.05178 -0.65991 -16.1019 -0.321687 -2.44195 36.2499 -26.3694 4.83526 2.10252 -0.0 -0.0 0.0 0.0 0.0 
